/* XPM */
static char *solarwolf2[] = {
/* columns rows colors chars-per-pixel */
"32 32 113 2",
"   c #000000",
".  c #0C0C0C",
"X  c #141414",
"o  c #1D1D1D",
"O  c #173F18",
"+  c #1D321E",
"@  c #252525",
"#  c #2B2B2B",
"$  c #233223",
"%  c #2F322F",
"&  c #333333",
"*  c #3C3C3C",
"=  c #0D5B0F",
"-  c #0D5910",
";  c #164318",
":  c #114B13",
">  c #19401A",
",  c #105513",
"<  c #0A6C0C",
"1  c #07740B",
"2  c #067B09",
"3  c #097C0C",
"4  c #1F6922",
"5  c #215323",
"6  c #2D5E2E",
"7  c #374537",
"8  c #3E413E",
"9  c #3D4D3E",
"0  c #355236",
"q  c #375138",
"w  c #335A35",
"e  c #3A513B",
"r  c #3C583D",
"t  c #236F25",
"y  c #29612B",
"u  c #227E25",
"i  c #277829",
"p  c #2B742D",
"a  c #356737",
"s  c #376538",
"d  c #376E38",
"f  c #3A653B",
"g  c #3C6B3E",
"h  c #327033",
"j  c #3F5D40",
"k  c #3F6540",
"l  c #403F3F",
"z  c #403F40",
"x  c #434343",
"c  c #424942",
"v  c #484748",
"b  c #4C4C4C",
"n  c #445D45",
"m  c #475948",
"M  c #4C544C",
"N  c #4D5B4D",
"B  c #504E50",
"V  c #535253",
"C  c #585758",
"Z  c #5B5B5B",
"A  c #436444",
"S  c #406942",
"D  c #49624A",
"F  c #646464",
"G  c #6C6C6C",
"H  c #747474",
"J  c #7C7C7C",
"K  c #048508",
"L  c #048908",
"P  c #09830D",
"I  c #0A8C0F",
"U  c #0F8713",
"Y  c #0E8E12",
"T  c #029307",
"R  c #07930B",
"E  c #009C05",
"W  c #059A0A",
"Q  c #08930D",
"!  c #089A0C",
"~  c #0E9313",
"^  c #0E9C13",
"/  c #118615",
"(  c #108B14",
")  c #158C1A",
"_  c #188B1D",
"`  c #119315",
"'  c #149718",
"]  c #159A1A",
"[  c #1A931E",
"{  c #1E8422",
"}  c #1D8921",
"|  c #00A404",
" . c #07A00C",
".. c #00A905",
"X. c #07AE0C",
"o. c #0AA40F",
"O. c #09AB0E",
"+. c #0FA313",
"@. c #02B107",
"#. c #06B40B",
"$. c #00BD05",
"%. c #05B80B",
"&. c #09B00E",
"*. c #00C005",
"=. c #848484",
"-. c #8B8B8B",
";. c #929292",
":. c #9C9C9C",
">. c #A3A3A3",
",. c #AAAAAA",
"<. c #B4B4B4",
"1. c #BBBBBB",
"2. c None",
/* pixels */
"2.2.2.2.2.2.2.2.2.2.2.2.2.2.2.2.2.2.2.2.2.2.2.2.2.2.2.2.2.2.2.2.",
"2.                      .           .         .     .       2.2.",
"  o @ # # # # # # # # # # # @ # # * & % % % % % & % # # # . 2.2.",
"o & & & & & & & & & & & & * * & b Z x l l l l * * * l * * # . 2.",
"* * * * * * * * * * * * * * * b H J G b v x v v v v v v x x o 2.",
"& * * * * x * x x x x x x x z G <.1.,.Z B V B B b b b b b b o 2.",
"& * * x z z x z x x x x x x x G 1.1.,.Z B V B B b V b b b x o 2.",
"& * v r y 6 6 w 0 9 9 c c x x G <.<.>.Z V m m g d h p j b x X 2.",
"@ x b g / ( ! E W ! I / t c x F ,.<.:.Z M [ X.#.X.^ ` f b x   2.",
"o * b g / Y W | ..| | E / 9 x F ,.,.:.Z n o.$.*.#.^ ) f B * . 2.",
"o * b S / ( T | | | | E / 9 z F >.,.;.C n O.@.*.X.^ ' f b x   2.",
"o * b A ) ( ! | ..| | E ( 9 x F :.>.;.C n O.$.$.X.^ ' A b *   2.",
"o * v D ) Y ! | | | | E ( 9 x F :.:.-.C A X.$.$.X.+.] n b *   2.",
"o * v D _ ` W | ..| | | ( e x F ;.:.=.C S X.$.$.X.+.' m b * . 2.",
". & x D _ ` ! ..| | ..| ~ e x Z ;.;.=.C S %.*.$.X.+.[ m b # 2.2.",
". & x N _ ~ ! ..........~ e x Z -.;.=.V S %.*.$.&.+.[ M b @ 2.2.",
"  & x N _ ( R | | | | | I 9 x Z =.;.J V g %.*.$.O.^ _ M b o 2.2.",
". & z N { ( I E W T L L P 0 x Z =.=.H V f  ...@.+.^ u M v @ 2.2.",
"  % x M i / U K L L K L P 0 x C =.=.H C s I W W ^ ^ u M b o 2.2.",
"  & z N i U P K L L K K 3 0 x Z J J H V s R W W ! I 4 c b o 2.2.",
"2.# z x 5 < 2 K L L K K 3 0 x V J J G C s I W W 3 : $ * x o 2.2.",
"2.@ l * & $ O - 1 K K K 3 0 x V H J G V a R P , $ & x b x X 2.2.",
"2.X * * * * & % $ ; = 1 3 0 x V H J G V w , + & x b b * o   2.2.",
"2.. X # * * x x * * # $ > 7 x V H H F V z % x b b x # .   2.2.2.",
"2.2.    X # & * * x x x * * x b H H F V b b b b & X   2.2.2.2.2.",
"2.2.2.2.    . o # * * x x x x V G H F b b b x @ . 2.2.2.2.2.2.2.",
"2.2.2.2.2.2.    . o # & * x x V G H F V b & X   2.2.2.2.2.2.2.2.",
"2.2.2.2.2.2.2.2.2.    . o & * b G G F 8 @   2.2.2.2.2.2.2.2.2.2.",
"2.2.2.2.2.2.2.2.2.2.2.    . X & V V & .   2.2.2.2.2.2.2.2.2.2.2.",
"2.2.2.2.2.2.2.2.2.2.2.2.2.2.    X o   2.2.2.2.2.2.2.2.2.2.2.2.2.",
"2.2.2.2.2.2.2.2.2.2.2.2.2.2.2.2.2.2.2.2.2.2.2.2.2.2.2.2.2.2.2.2.",
"2.2.2.2.2.2.2.2.2.2.2.2.2.2.2.2.2.2.2.2.2.2.2.2.2.2.2.2.2.2.2.2."
};
